<?xml version="1.0" encoding="utf-8" ?>
<svg xmlns="http://www.w3.org/2000/svg" xmlns:xlink="http://www.w3.org/1999/xlink" width="22" height="15">
	<path fill="#80B8FF" transform="translate(-0.000383377 0)" d="M17.664381 7.9321465C17.664381 12.734718 10.627538 13.000064 10.349932 13.009473C3.1742854 13.009473 3.0393112 8.1353903 3.0364394 7.9321465L3.0364394 1.7078109C3.0364394 1.5864294 3.1015334 1.5130358 3.1225932 1.5045673L17.573441 1.5045673C17.599287 1.5130358 17.664381 1.5864294 17.664381 1.7078109L17.664381 7.9321465ZM20.308342 3.625452C20.324615 3.6555622 20.343761 3.7082551 20.343761 3.7825894L20.343761 6.5555477C20.343761 6.6298819 20.324615 6.6816339 20.308342 6.7117438L19.196003 6.7117438L19.196003 3.625452L20.308342 3.625452ZM19.174942 8.2172518L20.385881 8.2172518C21.207212 8.2172518 21.875383 7.4720254 21.875383 6.5555477L21.875383 3.7825894C21.875383 2.8661113 21.207212 2.1208847 20.385881 2.1208847L19.196003 2.1208847L19.196003 1.7078109C19.196003 0.76592731 18.470398 0 17.578228 0L3.1225932 0C2.2304237 0 1.5057753 0.76592731 1.5057753 1.7078109L1.5057753 7.9321465C1.5057753 7.9773116 1.5545957 11.080541 4.4455314 13.009473L0 13.009473L0 14.51404L21.7854 14.51404L21.7854 13.009473L16.028418 13.009473C17.732347 12.037479 19.068687 10.511271 19.174942 8.2172518L19.174942 8.2172518Z" fill-rule="evenodd"/>
</svg>
