<svg width="30" height="30" viewBox="0 0 30 30" fill="none" xmlns="http://www.w3.org/2000/svg">
<g clip-path="url(#clip0_146_1201)">
<path fill-rule="evenodd" clip-rule="evenodd" d="M3.51562 0H26.4844C28.426 0 30 1.574 30 3.51562V26.4844C30 28.426 28.426 30 26.4844 30H3.51562C1.574 30 0 28.426 0 26.4844V3.51562C0 1.574 1.574 0 3.51562 0Z" fill="#091A2E"/>
<path fill-rule="evenodd" clip-rule="evenodd" d="M10.9312 20.5983C10.2445 20.841 9.59539 20.9056 8.94569 20.7996C7.78531 20.6081 7.01172 19.584 6.97497 18.1903C6.9397 16.8342 7.30604 15.5403 8.16351 13.9949C8.49636 13.395 8.92435 12.7962 9.47239 12.1647C9.74092 11.8556 10.1073 11.6782 10.4783 11.6782C10.7833 11.6782 11.0708 11.7991 11.2878 12.0193C11.8675 12.6076 11.9737 13.5218 11.5451 14.2418L11.508 14.3037C11.0628 15.0511 10.6025 15.8241 10.275 16.7039C10.0723 17.248 9.94365 17.7797 9.88171 18.3287C9.81057 18.9612 9.96262 19.5706 10.3097 20.0458C10.4828 20.2819 10.695 20.4694 10.9312 20.5983ZM12.926 16.1279C12.9681 15.8448 13.0098 15.561 13.0445 15.2769L13.0872 14.9439L13.0875 14.9422C13.1841 14.1955 13.2837 13.4235 13.1352 12.6234C12.9277 11.5037 12.3978 10.7096 11.5869 10.2909C11.7439 10.1771 11.9325 10.0524 12.1482 9.9295C12.7905 9.56177 13.4189 9.32715 14.0706 9.21195C14.6516 9.10834 15.1323 9.12414 15.5894 9.26217C16.5918 9.56282 17.2305 10.5129 17.2557 11.7418C17.2871 13.2581 17.1128 14.742 16.8985 16.3875L16.8834 16.5252C16.8701 16.6526 16.9054 16.7921 16.9762 16.8887C17.047 16.9849 17.1582 17.0436 17.2655 17.0436C17.4581 17.0436 17.7083 16.8328 18.0106 16.418C18.1784 16.1869 18.3292 15.9509 18.457 15.7479C19.0714 14.7732 19.7516 13.6174 20.0433 12.2286C20.2789 11.1054 20.0688 10.2365 19.4194 9.64606C19.3088 9.54561 19.19 9.46342 19.0625 9.3988C19.9437 9.08094 20.7119 9.05811 21.4873 9.32188C22.3966 9.63201 23.001 10.5923 23.0256 11.7689C23.0564 13.1622 22.6812 14.5158 21.8774 15.907C20.5142 18.2686 18.853 19.7912 16.7984 20.5611C15.9136 20.893 15.1427 20.9467 14.4097 20.7283C13.4307 20.4378 12.7742 19.4624 12.7381 18.2433C12.7167 17.5412 12.8181 16.8564 12.9254 16.1325L12.926 16.1293V16.1279Z" fill="#3FF1B2"/>
</g>
<defs>
<clipPath id="clip0_146_1201">
<rect width="30" height="30" fill="white"/>
</clipPath>
</defs>
</svg>
