<svg width="1644" height="916" viewBox="0 0 1644 916" fill="none" xmlns="http://www.w3.org/2000/svg">
<path opacity="0.32" fill-rule="evenodd" clip-rule="evenodd" d="M1249.24 56.0829L1250.62 55.1901C1252.01 55.6215 1254.57 56.7618 1257.58 58.1028C1264.8 61.3159 1274.61 65.681 1277.12 64.207L1313 0H1265.03C1260.71 7.00811 1236.81 43.9834 1232.1 45.9891C1229.71 47.0081 1225.23 44.6844 1220.47 42.2223C1214.77 39.2684 1208.68 36.1153 1205.36 38.2955C1141.48 119.122 1068.58 192.26 990.944 259.836L1016.93 273.583C1018.97 274.804 1017.7 275.867 1016.45 276.923L1016.45 276.923C1016.15 277.175 1015.86 277.425 1015.6 277.678C1002.46 290.835 985.344 304.78 969.625 317.588C965.381 321.046 961.239 324.421 957.305 327.675C895.599 378.705 830.621 425.777 764.331 470.668C763.082 471.559 762.06 471.461 760.65 471.111C756.78 470.149 751.405 466.451 746.041 462.761C741.282 459.487 736.531 456.219 732.85 454.873C732.576 454.773 732.31 454.666 732.049 454.56C730.664 453.997 729.415 453.49 727.877 454.535C635.695 513.669 539.856 567.038 441.363 615.008L441.28 615.083L441.214 615.141L441.167 615.183C441.125 615.22 441.084 615.256 441.044 615.291L440.911 615.407C439.808 616.365 439.451 616.676 440.6 618.427C441.211 619.356 446.233 622.515 452.144 626.233L452.145 626.233C461.874 632.352 474.01 639.986 472.844 641.683C371.641 694.185 265.084 735.648 157.924 774.477L153.576 774.018L119.166 746.603L115.976 745.918L0 782.935V894C72.7276 873.947 143.87 848.604 214.638 822.693C216.215 822.311 217.518 822.793 218.939 823.318C219.034 823.353 219.129 823.389 219.225 823.424C222.759 824.721 229.699 830.175 236.807 835.76C245.571 842.647 254.591 849.735 257.794 849.478C364.587 807.971 468.19 759.162 567.403 702.011L566.552 699.181C563.02 696.503 557.904 693.809 552.698 691.068L552.698 691.068C545.936 687.507 539.022 683.866 535.227 680.075C534.946 679.794 534.649 679.551 534.376 679.328C533.342 678.48 532.666 677.926 534.55 676.704C629.79 623.646 722.545 565.997 810.423 501.466C811.75 500.506 812.573 500.624 814.027 501.14C816.744 502.103 821.431 504.93 826.406 507.931C833.711 512.337 841.636 517.117 844.855 516.919L848.871 515.36C915.057 465.178 977.861 410.711 1038.23 353.82C1043.33 346.82 1051.8 339.426 1060.22 332.08C1069.2 324.243 1078.12 316.459 1082.81 309.268C1083.86 307.672 1084.63 306.481 1084.05 304.473L1056.73 291.372C1128.38 219.475 1193.43 140.987 1249.24 56.0829ZM893.813 135.926C941.622 96.405 991.675 51.2258 1033.6 5.5147C1033.92 5.16967 1034.25 4.84806 1034.57 4.53192L1034.57 4.53157L1034.57 4.53108L1034.57 4.53049L1034.57 4.52973C1035.84 3.29438 1037.02 2.14179 1037 0H964.396C958.381 6.91939 951.018 12.9639 943.853 18.8465C943.153 19.4213 942.455 19.9946 941.76 20.567C891.5 61.9574 838.356 99.807 784.228 135.949C783.229 136.99 784.851 138.151 785.905 138.905C786.104 139.048 786.283 139.176 786.421 139.286C792.315 144.015 800.035 149.138 806.851 152.465L804.01 157.138C715.779 216.168 623.809 269.785 528.084 315.771L498.116 295.279C397.154 340.712 294.647 383.618 189.046 417.503C188.634 419.042 189.128 419.551 189.737 420.178C189.954 420.402 190.185 420.64 190.395 420.945C193.086 424.85 199.235 429.721 205.005 434.291C208.601 437.14 212.049 439.871 214.42 442.179C214.686 442.437 214.968 442.691 215.251 442.946C216.679 444.232 218.155 445.561 217.812 447.696C160.31 468.092 101.818 485.378 42.7617 500.875C41.1403 501.301 39.5164 501.73 37.8903 502.16C25.3817 505.464 12.7372 508.804 0 510.88V618C2.47593 617.331 4.95256 616.662 7.42974 615.993L7.43029 615.993L7.43093 615.993L7.43158 615.993L7.43214 615.993C66.2107 600.119 125.303 584.161 182.906 564.467C219.074 552.101 261.254 536.904 295.872 521.157C296.016 521.092 296.206 521.01 296.43 520.913C298.688 519.934 304.449 517.437 302.735 515.025L272.632 490.967C286.202 484.312 300.494 478.651 314.774 472.996C322.667 469.87 330.556 466.746 338.317 463.456C405.692 434.896 471.998 403.668 537.022 370.143C540.04 368.587 544.036 366.161 548.293 363.577L548.294 363.577L548.295 363.576C556.068 358.857 564.711 353.612 569.849 352.175C569.985 352.137 570.115 352.1 570.241 352.064C572.241 351.499 573.07 351.265 575.286 352.266C577.736 353.372 581.785 356.592 586.127 360.046C592.68 365.257 599.902 371.001 603.31 370.817C606.818 370.626 630.695 356.204 641.463 349.7L641.464 349.7L641.47 349.696C643.285 348.6 644.727 347.729 645.635 347.19C709.187 309.453 773.934 266.392 832.77 221.676C835.359 219.709 838.271 217.573 841.306 215.348L841.307 215.347C849.416 209.4 858.399 202.812 864.408 197.089C864.608 196.899 864.872 196.674 865.168 196.423C866.503 195.286 868.46 193.621 867.861 192.259C867.164 190.698 861.722 187.666 856.286 184.637C851.614 182.033 846.945 179.431 845.296 177.768C845.077 177.547 844.869 177.365 844.68 177.2C843.901 176.517 843.446 176.118 843.854 174.439C860.902 162.693 877.695 149.252 893.813 135.926ZM1438.31 119.307C1436.73 119.228 1435.38 119.234 1434.32 120.63C1392.65 212.776 1338.07 298.468 1277.56 379.167L1309.03 390.109C1247.37 475.675 1176.8 554.34 1102.99 629.492C1101.46 631.024 1099.92 630.823 1098.02 630.574L1097.82 630.547C1093.52 629.989 1087.71 627.235 1081.94 624.5C1076.47 621.903 1071.03 619.324 1066.96 618.663L1066.82 618.64L1066.71 618.622C1065.24 618.379 1063.92 618.161 1062.56 619.104C983.855 694.284 900.495 765.062 811.9 828.264L814.13 832.169C818.329 834.213 822.851 836.076 827.402 837.951C834.235 840.766 841.137 843.609 847.122 847.137C847.46 847.336 847.802 847.38 848.099 847.417C848.791 847.504 849.243 847.561 848.858 849.475L759.848 916H564C625.909 880.301 687.194 843.643 745.502 802.218C746.932 800.815 746.233 800.177 745.26 799.287C745.149 799.186 745.034 799.081 744.919 798.971C744.888 798.942 744.858 798.913 744.828 798.884C744.799 798.856 744.77 798.827 744.741 798.799C742.002 796.077 735.257 793.27 728.452 790.438L728.451 790.438C722.327 787.889 716.154 785.32 712.81 782.776C712.636 782.644 712.467 782.523 712.303 782.41C712.213 782.348 712.125 782.288 712.038 782.229C710.885 781.444 710.102 780.911 710.552 778.898C803.09 719.515 890.497 652.357 974.964 582.078C978.109 580.886 985.189 584.382 992.559 588.021C1000.73 592.055 1009.25 596.265 1013.17 594.463C1092.74 523.785 1168.27 448.78 1237.81 368.164C1238.14 366.148 1237.79 366.152 1237.07 366.159C1236.75 366.163 1236.37 366.167 1235.94 365.995C1232.05 364.442 1228 363.142 1223.94 361.839C1218.42 360.065 1212.88 358.286 1207.71 355.856C1275.3 278.466 1337.62 196.282 1389.84 107.594L1393 105.843L1416.83 113.604L1419.28 112.485C1421.09 109.084 1422.92 105.684 1424.74 102.282C1442.58 69.0042 1460.49 35.5888 1473.39 0H1509C1501.15 35.2386 1487.79 68.8269 1474.48 102.305L1474.47 102.312L1474.47 102.318L1474.47 102.325C1471.32 110.252 1468.17 118.173 1465.09 126.108C1463.94 126.948 1456.49 124.593 1449.63 122.427C1444.67 120.86 1440.03 119.392 1438.31 119.307ZM1509.27 438.882C1507.91 438.304 1506.55 437.582 1507.02 435.886C1556.87 348.772 1597.35 256.069 1626.34 159.819L1644 162.395V61L1611.24 154.695L1580.26 152.726C1541.42 247.471 1490.86 336.936 1434.3 422.055C1434.44 424.154 1444.24 425.937 1452.54 427.447C1457.51 428.352 1461.95 429.159 1463.44 429.877L1463.61 429.955C1464.89 430.566 1466.17 431.182 1465.69 432.866C1408.1 521.246 1343.25 604.565 1274.66 684.534C1273.09 686.047 1271.24 685.943 1269.25 685.777C1264.82 685.41 1258.94 683.216 1253.13 681.047C1247.19 678.832 1241.33 676.644 1237.16 676.457C1237.03 676.451 1236.91 676.444 1236.78 676.438C1235.46 676.368 1234.44 676.314 1233.4 677.478C1158.62 758.08 1080.71 835.683 997 907.094L1016.16 916H1134.05C1201.52 848.218 1266.55 777.97 1325.98 702.921C1329.19 700.921 1339.87 704.08 1349.38 706.895C1355.4 708.675 1360.95 710.317 1363.85 710.431C1365.41 710.493 1366.72 710.431 1367.87 709.207C1431.03 625.368 1491.06 538.465 1539.82 445.37C1539.45 443.513 1529.99 442.22 1521.58 441.071C1516.07 440.318 1511.02 439.628 1509.27 438.882ZM646.389 34.3226C649.529 37.7168 654.44 41.2437 659.027 44.5379L659.028 44.5389C661.317 46.1826 663.525 47.7684 665.392 49.2508L666.26 52.0784C574.04 105.381 478.421 152.806 379.64 192.841L351.19 168.917C248.223 208.317 142.676 240.976 35.5736 267.396C34.7121 268.512 44.9275 278.636 52.8395 286.477C57.2002 290.798 60.8613 294.426 61.5825 295.471C61.7926 295.775 62.0233 296.012 62.2393 296.235L62.2395 296.235C62.8491 296.863 63.342 297.371 62.9282 298.908L0 314V179.624C95.7534 159.201 190.793 135.28 284.056 105.609C286.273 105.065 287.608 105.807 289.431 106.879C291.431 108.054 295.446 112.473 299.687 117.141C305.431 123.462 311.59 130.241 313.723 130.04C415.423 94.9896 515.023 54.1888 611.54 6.83469C612.084 4.68326 610.748 3.99942 609.246 3.23012C607.938 2.56016 606.503 1.82538 606.072 0H695L644.383 30.1854C643.979 31.9688 644.734 32.6977 645.697 33.6274C645.921 33.8431 646.155 34.0696 646.389 34.3226ZM1621.87 754.07C1628.04 754.989 1633.51 755.805 1636.17 755.722L1644 744.685V572L1541.12 741.332L1537.74 743.196L1499.14 737.695L1364 916H1486.16L1593.88 752.893C1596.77 750.329 1610.5 752.376 1621.87 754.07Z" fill="url(#paint0_radial_0_166)"/>
<defs>
<radialGradient id="paint0_radial_0_166" cx="0" cy="0" r="1" gradientTransform="matrix(-29.11 878.013 -2662.63 -27.4056 1431.94 53.2003)" gradientUnits="userSpaceOnUse">
<stop stop-color="#FFE243"/>
<stop offset="0.525377" stop-color="#43FFBB"/>
<stop offset="1" stop-color="#091A2E"/>
<stop offset="1" stop-color="#091A2E"/>
</radialGradient>
</defs>
</svg>
