<?xml version="1.0" encoding="utf-8" ?>
<svg xmlns="http://www.w3.org/2000/svg" xmlns:xlink="http://www.w3.org/1999/xlink" width="2057" height="1136">
	<path fill="#091A2E" d="M0 0L2057 0L2057 1136L0 1136L0 0Z"/>
	<defs>
		<radialGradient id="gradient_0" gradientUnits="userSpaceOnUse" cx="1431.9431" cy="53.200367" r="878.49579" gradientTransform="matrix(-0.0331361 0.999451 -1.68875 -0.0559894 1569.23 -1374.98)">
			<stop offset="0" stop-color="#FFE243"/>
			<stop offset="0.52537698" stop-color="#43FFBB"/>
			<stop offset="1" stop-color="#091A2E"/>
			<stop offset="1" stop-color="#091A2E"/>
		</radialGradient>
	</defs>
	<path fill="url(#gradient_0)" transform="translate(413 -1)" d="M1644 61L1644 162.39485L1626.3429 159.81876C1597.3541 256.06882 1556.8652 348.77237 1507.0203 435.88611C1506.5454 437.58163 1507.9106 438.30362 1509.2665 438.88187C1511.0933 439.66043 1516.5154 440.37827 1522.2957 441.16907L1523.1438 441.28531L1524.015 441.40552C1524.2676 441.44052 1524.5201 441.47568 1524.7726 441.51102L1525.5289 441.61752C1532.7041 442.63464 1539.5089 443.80127 1539.8217 445.37018C1491.0605 538.46484 1431.028 625.36823 1367.8672 709.20715C1366.724 710.43127 1365.4147 710.49255 1363.8516 710.43127C1356.3513 710.13525 1331.2141 699.65753 1325.9781 702.92072C1266.5485 777.97003 1201.5242 848.21808 1134.0548 916L1016.1641 916L997 907.09412C1080.7092 835.68329 1158.6178 758.08008 1233.397 677.47791C1234.5328 676.2052 1235.656 676.38916 1237.1598 676.45679C1245.4172 676.82782 1260.2961 685.03601 1269.2473 685.77704C1271.2419 685.94299 1273.0852 686.04657 1274.6642 684.53394C1343.2513 604.56494 1408.0969 521.24615 1465.6875 432.86603C1466.1582 431.23132 1464.9595 430.60361 1463.7181 430.00867L1463.4423 429.87662C1461.8666 429.11841 1457.0076 428.26086 1451.697 427.29324L1450.8552 427.13953L1450.4852 427.07172L1449.743 426.935C1449.3716 426.8663 1448.9995 426.79706 1448.6279 426.72729L1447.8855 426.58704L1447.1459 426.44534C1440.507 425.1637 1434.4088 423.70718 1434.2959 422.0553C1490.8617 336.93628 1541.4207 247.47054 1580.2565 152.72577L1611.2441 154.6951L1644 61ZM1644 572L1644 744.68512L1636.1705 755.72156C1628.6206 755.95837 1598.3329 748.93665 1593.8845 752.89319L1486.1565 916L1364 916L1499.1439 737.69513L1537.7386 743.19641L1541.1196 741.33234L1644 572ZM1509 0C1501.5978 33.211182 1489.3085 64.95649 1476.7747 96.524956L1475.2069 100.47019L1473.6388 104.41414C1470.7645 111.64388 1467.8977 118.86997 1465.0942 126.10793C1463.1089 127.5562 1442.3944 119.50876 1438.3138 119.30669C1436.7268 119.22842 1435.3818 119.2337 1434.322 120.63013C1392.6489 212.77632 1338.0695 298.46826 1277.5573 379.16693L1309.0311 390.1088C1247.3704 475.67487 1176.7972 554.34021 1102.9889 629.49231C1101.4008 631.07916 1099.8096 630.80627 1097.8158 630.54706C1089.4391 629.45953 1075.3103 620.02094 1066.959 618.6626C1065.3835 618.40662 1063.99 618.10931 1062.5604 619.10376C983.85468 694.28442 900.49463 765.06213 811.90027 828.26416L814.1297 832.16888C824.63434 837.28174 837.14972 841.2594 847.12183 847.13708C848.24603 847.79938 849.40833 846.73724 848.85785 849.4751L759.84821 916L564 916C625.90906 880.30121 687.1936 843.64288 745.50177 802.21765C747.17859 800.57263 745.92865 799.97913 744.74103 798.79852C742.17865 796.25281 736.11102 793.6322 729.76825 790.98645L728.57654 790.49011C722.41083 787.92419 716.17633 785.33765 712.80969 782.77557C711.26917 781.60236 710.00763 781.33575 710.55176 778.89838C803.09039 719.51532 890.49713 652.35669 974.96448 582.07837C977.87317 580.97498 984.14984 583.88416 990.90894 587.20752L991.85492 587.67358C992.013 587.75159 992.17126 587.82971 992.32971 587.90796L993.2818 588.37799C993.75842 588.61316 994.23584 588.84833 994.71295 589.08228L995.66656 589.5481C1002.8115 593.02399 1009.7498 596.03705 1013.1741 594.4632C1092.7419 523.78491 1168.2694 448.77988 1237.8145 368.16373C1238.2889 365.25238 1237.3337 366.55362 1235.938 365.99503C1226.7615 362.32837 1216.6869 360.07187 1207.709 355.85614C1275.3004 278.46552 1337.6194 196.28156 1389.8394 107.59364L1392.9996 105.84281L1416.8301 113.60356L1419.2761 112.48537C1420.6753 109.86593 1422.0781 107.24693 1423.4822 104.62738L1425.5887 100.69751L1427.6541 96.843163C1427.9982 96.200607 1428.3423 95.557961 1428.6862 94.915207L1430.748 91.057266C1446.5411 61.468094 1461.942 31.590292 1473.3917 0L1509 0ZM1313 0L1277.1162 64.206985C1275.1835 65.341858 1268.926 63.015411 1262.8547 60.418377L1262.0283 60.062859C1257.2198 57.982712 1252.6587 55.82312 1250.6155 55.190056L1249.2399 56.082863C1193.4323 140.9873 1128.3778 219.47496 1056.7308 291.37234L1084.049 304.4725C1084.6294 306.48132 1083.8555 307.67242 1082.814 309.26764C1078.4066 316.01654 1070.2815 323.28622 1061.8759 330.63297L1060.6735 331.68298L1059.1155 333.04291C1051.0671 340.07144 1043.1055 347.12607 1038.226 353.82016C977.86102 410.71121 915.05676 465.1777 848.87103 515.35999L844.85516 516.91925C839.44354 517.2514 820.73566 503.51868 814.02667 501.13965C812.57275 500.62448 811.75012 500.50598 810.42316 501.46649C722.54456 565.99719 629.79047 623.64563 534.55048 676.70416C532.17035 678.24756 533.87585 678.72565 535.22717 680.07544C538.64874 683.49365 544.60638 686.78967 550.70172 690.01489L552.0575 690.73047L552.70819 691.07312L554.00604 691.75702C558.75159 694.26111 563.31604 696.72754 566.55164 699.18091L567.40277 702.01056C468.19031 759.16187 364.58658 807.97107 257.79385 849.47815C251.99316 849.9425 227.11655 826.32123 219.22543 823.42383C217.69121 822.86108 216.32086 822.28558 214.63754 822.69287C143.87027 848.60437 72.727623 873.94678 0 894L0 782.93549L115.97594 745.91785L119.16601 746.60333L153.57581 774.01801L157.92369 774.47705C265.08438 735.64844 371.64133 694.18475 472.84375 641.68268C473.70316 640.43201 467.33826 635.95758 460.03632 631.24097L459.38007 630.81805C459.27032 630.74744 459.16043 630.67688 459.05038 630.6062L458.38852 630.18225L457.72412 629.75812L457.05826 629.33441L456.08444 628.71674L455.1127 628.10242C448.00192 623.61292 441.3114 619.50903 440.60049 618.42737C439.30524 616.45453 439.92273 616.30957 441.36285 615.00848C539.85632 567.03809 635.69476 513.66852 727.87683 454.53491C729.70502 453.29303 731.12402 454.24295 732.84961 454.87341C740.68048 457.73483 753.34662 469.29477 760.64984 471.11108C762.06036 471.46121 763.08179 471.55853 764.33051 470.66785C830.62091 425.77679 895.59912 378.7045 957.30481 327.6749C975.81396 312.36707 998.90997 294.38718 1015.6036 277.6777C1015.7786 277.50269 1015.9753 277.32843 1016.1788 277.15424L1016.3842 276.98007C1016.4186 276.95105 1016.453 276.922 1016.4875 276.89297L1016.6934 276.7186C1017.853 275.72983 1018.8342 274.7258 1016.9264 273.58286L990.94379 259.8364C1068.5765 192.26022 1141.4755 119.122 1205.3593 38.295486C1208.0452 36.52951 1212.551 38.262753 1217.1982 40.554928L1217.8326 40.870686C1218.0443 40.97691 1218.2561 41.084011 1218.4679 41.191715L1219.2299 41.581577C1219.3567 41.646828 1219.4835 41.712177 1219.6102 41.777565L1220.3689 42.169868C1225.1616 44.651299 1229.6963 47.015316 1232.1042 45.989071C1234.3685 45.024357 1241.0731 35.969021 1247.9032 26.049549L1248.4572 25.243515C1248.5496 25.10891 1248.6418 24.97418 1248.7343 24.839346L1249.2881 24.029238C1249.3804 23.894058 1249.4725 23.75881 1249.5648 23.623512L1250.4143 22.373678L1250.7285 21.909924L1251.3547 20.983145C1257.4971 11.877744 1263.1398 3.0677435 1265.0305 0L1313 0ZM1037 0C1037.0303 2.6911299 1035.1554 3.8205571 1033.6008 5.5146976C991.67511 51.225765 941.62225 96.404968 893.81311 135.92644C877.69525 149.25177 860.90216 162.69258 843.85431 174.43925C843.34705 176.52435 844.17139 176.63455 845.29584 177.7682C848.86371 181.36627 866.5636 189.35703 867.86139 192.25899C868.59271 193.92241 865.51312 196.03717 864.40765 197.08925C856.15063 204.95392 842.27643 214.45128 832.7702 221.67601C773.93402 266.39221 709.18695 309.45346 645.63513 347.18967C642.92755 348.79742 635.48077 353.34998 627.54504 358.03522L626.435 358.68954L625.32117 359.3439L624.91077 359.58441L624.09003 360.06442C623.67975 360.30399 623.26984 360.54285 622.86084 360.78061L622.04419 361.25452C621.6366 361.49063 621.23035 361.7254 620.82599 361.95844L620.01984 362.42203C612.12054 366.95593 605.09076 370.71991 603.30988 370.81653C597.64417 371.12271 581.43445 355.04269 575.28577 352.26575C572.93005 351.202 572.14166 351.53363 569.84937 352.17462C565.87305 353.28656 559.79858 356.67935 553.65204 360.34378L552.42236 361.07968L551.23663 361.79373C545.9093 365.00986 540.72797 368.2323 537.02191 370.1427C471.99796 403.66846 405.69205 434.89615 338.31659 463.45602C332.08762 466.09662 325.77612 468.63046 319.44635 471.14404L314.69656 473.02679C300.44299 478.67172 286.17789 484.32349 272.63211 490.96701L302.73502 515.02509C304.55325 517.58295 297.96048 520.23749 296.06 521.07355L295.87192 521.15747C261.25421 536.90375 219.07375 552.1012 182.90562 564.46661C122.87415 584.99127 61.225704 601.45801 0 618L0 510.88031C14.393056 508.53458 28.667746 504.57416 42.761715 500.87546C101.81773 485.37814 160.31047 468.09241 217.81187 447.69595C218.14342 445.63165 216.77519 444.32117 215.39394 443.07489L215.06305 442.77667C214.84343 442.57822 214.62695 442.37997 214.42049 442.17914C208.24329 436.16754 194.76227 427.28363 190.39543 420.94464C189.5954 419.78345 188.48679 419.59061 189.04585 417.50339C294.64706 383.61847 397.15384 340.71188 498.11554 295.27948L528.08429 315.77127C623.80933 269.78473 715.77948 216.16766 804.0105 157.13762L806.85132 152.46523C800.03473 149.1384 792.31451 144.01466 786.42053 139.2861C785.55817 138.59425 783.03973 137.18724 784.2276 135.94868C838.35559 99.807022 891.49969 61.957443 941.75964 20.567015C949.56647 14.136909 957.79291 7.5955558 964.396 0L1037 0ZM695 0L644.38281 30.18539C643.88568 32.382519 645.14697 32.979141 646.38922 34.322594C651.09662 39.410789 659.78314 44.797298 665.39191 49.250793L666.25952 52.078396C574.03992 105.38071 478.42059 152.80568 379.64014 192.84059L351.18991 168.91653C248.22348 208.31676 142.67642 240.97643 35.573586 267.3959C34.945358 268.21005 40.208229 273.81458 46.1726 279.83063L46.742592 280.40469C46.933186 280.59637 47.124317 280.7883 47.315826 280.98041L48.087311 281.75296C51.049355 284.71466 54.047588 287.66373 56.474426 290.08752L57.094154 290.70755C59.417027 293.0361 61.115669 294.79477 61.582493 295.47092C62.385704 296.63242 63.488674 296.82602 62.928219 298.90784L0 314L0 179.62396C95.753357 159.20135 190.79321 135.28049 284.05566 105.6092C286.27319 105.06547 287.60837 105.80701 289.43118 106.8786C290.23279 107.34982 291.35791 108.3418 292.69147 109.66189L293.20108 110.17193C295.53635 112.53292 298.42416 115.75968 301.31158 118.92638L301.953 119.62872C306.97388 125.11678 311.86942 130.21503 313.72284 130.03996C415.4227 94.989571 515.02325 54.188782 611.53973 6.8346877C612.55719 2.8096163 606.99695 3.9214034 606.07239 0L695 0Z" fill-rule="evenodd"/>
</svg>
