<?xml version="1.0" encoding="utf-8" ?>
<svg xmlns="http://www.w3.org/2000/svg" xmlns:xlink="http://www.w3.org/1999/xlink" width="27" height="26">
	<path fill="#3FF1B2" d="M15.383581 0L15.383581 6.2246881L8.9901924 6.2246881L8.9901924 12.477894L2.5968034 12.477894L2.5968034 24.246119L0 24.246119L0 26L2.5968034 26L10.733745 26L27 26L27 24.246119L23.520523 24.246119L23.520523 0L15.383581 0ZM17.127134 7.1032739L17.127134 6.2246881L17.127134 1.7538812L21.77697 1.7538812L21.77697 24.246119L17.127134 24.246119L17.127134 7.1032739ZM10.733745 13.355383L10.733745 12.477894L10.733745 7.9796658L15.383581 7.9796658L15.383581 24.246119L10.733745 24.246119L10.733745 13.355383ZM4.3392663 24.246119L8.9901924 24.246119L8.9901924 14.231775L4.3392663 14.231775L4.3392663 24.246119Z" fill-rule="evenodd"/>
</svg>
