<svg width="296" height="122" viewBox="0 0 296 122" fill="none" xmlns="http://www.w3.org/2000/svg">
<path fill-rule="evenodd" clip-rule="evenodd" d="M290.651 23.7132C289.01 26.1314 285.253 31.3953 282.303 35.4107C279.354 39.4264 273.684 47.3864 269.703 53.0998C261.42 64.9861 252.147 77.2701 251.084 77.765C250.686 77.95 248.133 77.0695 245.411 75.8088L243.217 74.7924C241.727 74.1021 241.133 72.2937 241.924 70.8545C248.973 58.0332 262.743 36.1488 271.282 24.1995C275.859 17.7935 280.501 9.39183 279.637 9.07707C279.396 8.98923 275.567 9.83076 271.128 10.9479L268.058 11.7203C266.343 12.1516 266.092 14.4841 267.676 15.2698C270.216 16.5294 272.228 17.7434 272.147 17.9661C272.066 18.1894 270.33 20.2135 268.29 22.4647C234.278 59.994 189.972 89.8606 145.496 105.24C109.006 117.858 75.8892 122.98 47.8058 120.348C34.94 119.143 25.4701 116.852 12.4126 111.785C4.45602 108.697 0.435065 106.873 0.0713614 106.186C-0.566581 104.981 3.00967 106.051 13.8953 110.32C31.3575 117.17 52.3397 116.896 90.1417 109.326C147.928 97.7532 198.216 69.1437 250.098 18.327L250.635 17.8008C251.109 17.3369 250.676 16.5429 250.029 16.6904C248.781 16.9748 243.781 18.4312 238.917 19.9259C234.053 21.4214 229.334 22.6306 228.431 22.6143C227.05 22.5885 216.435 17.3219 215.961 16.4271C215.236 15.0571 268.801 0.866417 277.886 0.0224335C281.83 -0.344132 292.335 3.85177 293.848 6.39786C296.452 10.7796 295.339 16.8128 290.651 23.7132Z" fill="url(#paint0_linear_156_1206)"/>
<defs>
<linearGradient id="paint0_linear_156_1206" x1="230.7" y1="191.331" x2="-0.447913" y2="107.15" gradientUnits="userSpaceOnUse">
<stop stop-color="#FFE243"/>
<stop offset="1" stop-color="#3FF1B2"/>
</linearGradient>
</defs>
</svg>
